<svg id="LOGOmyresearchkorea" xmlns="http://www.w3.org/2000/svg" width="409.697" height="62.317" viewBox="0 0 409.697 62.317">
  <g id="그룹_17" data-name="그룹 17">
    <g id="그룹_1" data-name="그룹 1">
      <rect id="사각형_2" data-name="사각형 2" width="9.295" height="35.785" transform="translate(0 8.627)" fill="#fff"/>
      <rect id="사각형_3" data-name="사각형 3" width="8.627" height="38.272" transform="translate(9.399 44.412) rotate(-90)" fill="#fff"/>
      <rect id="사각형_4" data-name="사각형 4" width="8.627" height="38.428" transform="translate(38.428) rotate(90)" fill="#fff"/>
      <rect id="사각형_5" data-name="사각형 5" width="9.295" height="35.785" transform="translate(19.214 26.532)" fill="#fff"/>
      <rect id="사각형_6" data-name="사각형 6" width="9.295" height="35.616" transform="translate(66.937 53.665) rotate(180)" fill="#fff"/>
      <rect id="사각형_7" data-name="사각형 7" width="8.627" height="38.272" transform="translate(28.613 62.317) rotate(-90)" fill="#fff"/>
      <rect id="사각형_8" data-name="사각형 8" width="8.627" height="38.428" transform="translate(57.668 17.88) rotate(90)" fill="#fff"/>
      <rect id="사각형_9" data-name="사각형 9" width="9.295" height="35.616" transform="translate(47.749 35.785) rotate(180)" fill="#fff"/>
    </g>
    <g id="그룹_2" data-name="그룹 2" transform="translate(90.824 15.639)">
      <path id="패스_1" data-name="패스 1" d="M453.9,111.21l-6.829-14.965H438.94v24.941h5.92V104.824l6.283,13.663h5.427l6.335-13.687v16.386h5.946V96.246H460.7Z" transform="translate(-438.94 -93.402)" fill="#fff"/>
      <path id="패스_2" data-name="패스 2" d="M607.28,139.31h-5.349v-13.9h-6.387v13.856a6.259,6.259,0,0,0,.364,2.265,3.111,3.111,0,0,0,1.272,1.542,4.579,4.579,0,0,0,1.9.651,19.563,19.563,0,0,0,2.233.12h5.972v2.6H596.946v4.6h11.736a9.25,9.25,0,0,0,1.584-.145,5.066,5.066,0,0,0,1.61-.578,4.029,4.029,0,0,0,1.272-1.157,3.214,3.214,0,0,0,.545-1.9v-21.9h-6.387V139.31Z" transform="translate(-563.14 -116.924)" fill="#fff"/>
      <path id="패스_3" data-name="패스 3" d="M753.619,113.408a4.6,4.6,0,0,0,1.506-.771,3.984,3.984,0,0,0,1.117-1.422,5.564,5.564,0,0,0,.493-2.169c.052-.94.078-1.759.078-2.506V104.4c0-.7,0-1.422-.026-2.169l-.052-2.482a2.9,2.9,0,0,0-.545-1.615,3.7,3.7,0,0,0-1.3-1.084,6.076,6.076,0,0,0-1.636-.53,10.445,10.445,0,0,0-1.766-.145h-13.4v24.941h6.076v-7.567h3.09l3.557,7.543h6.6l-4.025-7.808a1.122,1.122,0,0,0,.182-.048Zm-3.246-12.579v8.434H744.22v-8.434Z" transform="translate(-676.193 -93.504)" fill="#fff"/>
      <path id="패스_4" data-name="패스 4" d="M852.751,126.081a5.914,5.914,0,0,0-1.921-.6,14.306,14.306,0,0,0-1.662-.12h-7.426a6.43,6.43,0,0,0-3.765.916,3.311,3.311,0,0,0-1.506,2.554h0v10.964a4.924,4.924,0,0,0,.987,2.988,4.76,4.76,0,0,0,2.051,1.47,6.492,6.492,0,0,0,2.207.41h12.852V140.2h-11.71v-2.988h12.074v-7.157a4.72,4.72,0,0,0-.623-2.554,4.142,4.142,0,0,0-1.584-1.494Zm-9.893,6.723V129.84h5.634V132.8Z" transform="translate(-754.215 -116.924)" fill="#fff"/>
      <path id="패스_5" data-name="패스 5" d="M943.787,131.791h-7.192v-2.6h10.256V124.73H936.309a13.33,13.33,0,0,0-1.973.145,6.244,6.244,0,0,0-1.973.651,4.334,4.334,0,0,0-1.532,1.4,4.109,4.109,0,0,0-.623,2.289v3.06a3.655,3.655,0,0,0,1.35,2.964,5.077,5.077,0,0,0,3.271,1.012h6.777v3.494H930.389V144.2h11.476a9.515,9.515,0,0,0,2.207-.265,6.767,6.767,0,0,0,1.973-.843,4.525,4.525,0,0,0,1.428-1.494,3.909,3.909,0,0,0,.519-2.048v-3.976a3.686,3.686,0,0,0-1.272-2.916A4.7,4.7,0,0,0,943.787,131.791Z" transform="translate(-828.556 -116.417)" fill="#fff"/>
      <path id="패스_6" data-name="패스 6" d="M1038.466,126.081a5.913,5.913,0,0,0-1.921-.6,14.31,14.31,0,0,0-1.662-.12h-7.426a6.431,6.431,0,0,0-3.765.916,3.311,3.311,0,0,0-1.506,2.554h0v10.964a4.925,4.925,0,0,0,.987,2.988,4.759,4.759,0,0,0,2.051,1.47,6.492,6.492,0,0,0,2.207.41h12.853V140.2h-11.71v-2.988h12.074v-7.157a4.72,4.72,0,0,0-.623-2.554,4.143,4.143,0,0,0-1.584-1.494Zm-9.893,6.723V129.84h5.634V132.8Z" transform="translate(-901.503 -116.924)" fill="#fff"/>
      <path id="패스_7" data-name="패스 7" d="M1134.747,126.224a4.816,4.816,0,0,0-1.9-1.108,9.186,9.186,0,0,0-2.934-.386h-11.71v4.458h11.269v1.4h-5.323a16.766,16.766,0,0,0-2.934.217,5.164,5.164,0,0,0-2.155.8,3.412,3.412,0,0,0-1.3,1.566,5.613,5.613,0,0,0-.338,2.1v5.157a3.223,3.223,0,0,0,1.61,3.012,7.315,7.315,0,0,0,3.661.8h13.19V129.261a5.736,5.736,0,0,0-.208-1.47,3.355,3.355,0,0,0-.935-1.542Zm-5.271,8.82v4.7h-5.66v-4.7Z" transform="translate(-977.037 -116.417)" fill="#fff"/>
      <path id="패스_8" data-name="패스 8" d="M1228.772,126.081a5.913,5.913,0,0,0-1.921-.6,14.3,14.3,0,0,0-1.662-.12h-8.88v19.35h6.387V129.96h2.492v2h5.764v-1.88a5.031,5.031,0,0,0-.6-2.554,4.142,4.142,0,0,0-1.584-1.494Z" transform="translate(-1055.458 -116.924)" fill="#fff"/>
      <path id="패스_9" data-name="패스 9" d="M1295.883,128.812h9.01v-4.458h-10.152a6.376,6.376,0,0,0-3.765.916,3.428,3.428,0,0,0-1.506,2.578c-.078,1.831-.13,3.663-.13,5.567s.026,3.783.156,5.591a4.925,4.925,0,0,0,.987,2.988,4.613,4.613,0,0,0,2.051,1.47,6.492,6.492,0,0,0,2.207.41h10.8v-4.458h-9.659Z" transform="translate(-1113.378 -116.112)" fill="#fff"/>
      <path id="패스_10" data-name="패스 10" d="M1393.268,92.644a3.352,3.352,0,0,0-1.246-1.615,4.241,4.241,0,0,0-1.973-.723,19.787,19.787,0,0,0-2.207-.12h-6.283V81.439h-6.387v27.809h6.387V94.692h5.712v14.555h6.413V95.078a7.415,7.415,0,0,0-.39-2.41Z" transform="translate(-1181.448 -81.439)" fill="#fff"/>
      <path id="패스_11" data-name="패스 11" d="M1543.779,96.27h-7.036l-7.218,9.711h-.961V96.246h-6.076v24.941h6.076V110.439h.909l6.959,10.748h6.932l-8.906-13.013Z" transform="translate(-1298.283 -93.402)" fill="#fff"/>
      <path id="패스_12" data-name="패스 12" d="M1639.51,126.421a4.333,4.333,0,0,0-1.532-1.47,5.1,5.1,0,0,0-1.9-.6,13.91,13.91,0,0,0-1.662-.12h-7.4a6.377,6.377,0,0,0-3.765.916,3.426,3.426,0,0,0-1.506,2.554h0c-.078,1.831-.13,3.735-.13,5.711s.026,3.9.156,5.735a4.924,4.924,0,0,0,.987,2.988,4.758,4.758,0,0,0,2.051,1.47,6.492,6.492,0,0,0,2.207.41h7.945a7.846,7.846,0,0,0,1.688-.145,6.726,6.726,0,0,0,1.636-.506,3.682,3.682,0,0,0,1.324-1.06,2.844,2.844,0,0,0,.6-1.663c.052-1.855.1-3.807.1-5.856s0-4.024-.1-5.88a4.955,4.955,0,0,0-.7-2.506Zm-5.712,2.289V139.6h-5.634V128.711Z" transform="translate(-1376.903 -116.011)" fill="#fff"/>
      <path id="패스_13" data-name="패스 13" d="M1735.223,126.081a5.916,5.916,0,0,0-1.922-.6,14.3,14.3,0,0,0-1.662-.12h-8.88v19.35h6.387V129.96h2.493v2h5.764v-1.88a5.03,5.03,0,0,0-.6-2.554,4.143,4.143,0,0,0-1.584-1.494Z" transform="translate(-1457.115 -116.924)" fill="#fff"/>
      <path id="패스_14" data-name="패스 14" d="M1811.945,126.081a5.913,5.913,0,0,0-1.921-.6,14.308,14.308,0,0,0-1.662-.12h-7.426a6.432,6.432,0,0,0-3.765.916,3.311,3.311,0,0,0-1.506,2.554h0v10.964a4.922,4.922,0,0,0,.987,2.988,4.758,4.758,0,0,0,2.051,1.47,6.492,6.492,0,0,0,2.207.41h12.853V140.2h-11.71v-2.988h12.074v-7.157a4.722,4.722,0,0,0-.623-2.554,4.143,4.143,0,0,0-1.584-1.494Zm-9.893,6.723V129.84h5.634V132.8Z" transform="translate(-1514.935 -116.924)" fill="#fff"/>
      <path id="패스_15" data-name="패스 15" d="M1909.035,127.767a3.354,3.354,0,0,0-.935-1.542,4.814,4.814,0,0,0-1.9-1.108,9.186,9.186,0,0,0-2.934-.386h-11.71v4.458h11.268v1.4h-5.323a16.768,16.768,0,0,0-2.934.217,5.164,5.164,0,0,0-2.155.8,3.412,3.412,0,0,0-1.3,1.566,5.611,5.611,0,0,0-.338,2.1v5.157a3.223,3.223,0,0,0,1.61,3.012,7.312,7.312,0,0,0,3.661.8h13.19V129.261a5.736,5.736,0,0,0-.208-1.47Zm-6.206,7.277v4.7h-5.66v-4.7Z" transform="translate(-1590.37 -116.417)" fill="#fff"/>
    </g>
  </g>
</svg>
